<?xml version="1.0" encoding="UTF-8"?>
<svg xmlns="http://www.w3.org/2000/svg" xmlns:xlink="http://www.w3.org/1999/xlink" width="96pt" height="96pt" viewBox="0 0 96 96" version="1.1">
<defs>
<linearGradient id="linear0" gradientUnits="userSpaceOnUse" x1="0" y1="0" x2="1" y2="0" gradientTransform="matrix(56.443378,67.266594,67.266594,-56.443378,19.772424,14.360615)">
<stop offset="0" style="stop-color:rgb(100%,96.470588%,71.764706%);stop-opacity:1;"/>
<stop offset="1" style="stop-color:rgb(59.607843%,46.27451%,11.764706%);stop-opacity:1;"/>
</linearGradient>
<linearGradient id="linear1" gradientUnits="userSpaceOnUse" x1="0" y1="0" x2="1" y2="0" gradientTransform="matrix(77.89453,36.322649,36.322649,-77.89453,9.046924,29.832448)">
<stop offset="0" style="stop-color:rgb(99.215686%,100%,81.176471%);stop-opacity:1;"/>
<stop offset="0.158" style="stop-color:rgb(85.098039%,69.411765%,30.196078%);stop-opacity:1;"/>
<stop offset="0.427" style="stop-color:rgb(94.509804%,76.862745%,34.509804%);stop-opacity:1;"/>
<stop offset="0.682" style="stop-color:rgb(99.215686%,100%,80.784314%);stop-opacity:1;"/>
<stop offset="0.853" style="stop-color:rgb(89.411765%,72.54902%,31.372549%);stop-opacity:1;"/>
<stop offset="1" style="stop-color:rgb(89.411765%,72.54902%,31.372549%);stop-opacity:1;"/>
</linearGradient>
<linearGradient id="linear2" gradientUnits="userSpaceOnUse" x1="0" y1="0" x2="1" y2="0" gradientTransform="matrix(56.82815,56.82815,56.82815,-56.82815,19.580099,19.579737)">
<stop offset="0" style="stop-color:rgb(59.607843%,49.803922%,14.509804%);stop-opacity:1;"/>
<stop offset="0.759" style="stop-color:rgb(100%,96.470588%,71.764706%);stop-opacity:1;"/>
<stop offset="1" style="stop-color:rgb(100%,100%,100%);stop-opacity:1;"/>
</linearGradient>
<linearGradient id="linear3" gradientUnits="userSpaceOnUse" x1="0" y1="0" x2="1" y2="0" gradientTransform="matrix(112.376878,55.717649,-55.717649,112.376878,-2.993766,22.713695)">
<stop offset="0" style="stop-color:rgb(91.764706%,74.509804%,32.941176%);stop-opacity:1;"/>
<stop offset="0.22" style="stop-color:rgb(99.215686%,100%,81.176471%);stop-opacity:1;"/>
<stop offset="0.425" style="stop-color:rgb(94.901961%,74.509804%,30.980392%);stop-opacity:1;"/>
<stop offset="0.551" style="stop-color:rgb(96.078431%,80%,30.980392%);stop-opacity:1;"/>
<stop offset="0.763" style="stop-color:rgb(98.823529%,100%,74.901961%);stop-opacity:1;"/>
<stop offset="1" style="stop-color:rgb(90.980392%,73.333333%,32.54902%);stop-opacity:1;"/>
</linearGradient>
<clipPath id="clip1">
  <path d="M 20.398438 23 L 76.640625 23 L 76.640625 78.0625 L 20.398438 78.0625 Z M 20.398438 23 "/>
</clipPath>
<clipPath id="clip2">
  <path d="M 41 20 L 52 20 L 52 32 L 41 32 Z M 41 20 "/>
</clipPath>
<clipPath id="clip3">
  <path d="M 41.875 31.703125 C 39.695312 24.894531 38.578125 22.421875 38.578125 22.421875 C 41.699219 25.695312 43.914062 29.125 48.636719 20.835938 C 51.09375 25.164062 52.96875 28.949219 58.652344 22.433594 C 56.902344 26.378906 54.835938 31.980469 54.835938 31.980469 C 52.25 30.714844 45.257812 30.714844 41.875 31.703125 "/>
</clipPath>
<clipPath id="clip4">
  <path d="M 50 23 L 57 23 L 57 32 L 50 32 Z M 50 23 "/>
</clipPath>
<clipPath id="clip5">
  <path d="M 41.875 31.703125 C 39.695312 24.894531 38.578125 22.421875 38.578125 22.421875 C 41.699219 25.695312 43.914062 29.125 48.636719 20.835938 C 51.09375 25.164062 52.96875 28.949219 58.652344 22.433594 C 56.902344 26.378906 54.835938 31.980469 54.835938 31.980469 C 52.25 30.714844 45.257812 30.714844 41.875 31.703125 "/>
</clipPath>
<clipPath id="clip6">
  <path d="M 37 19.464844 L 61 19.464844 L 61 34 L 37 34 Z M 37 19.464844 "/>
</clipPath>
<linearGradient id="linear4" gradientUnits="userSpaceOnUse" x1="0" y1="0" x2="1" y2="0" gradientTransform="matrix(10.1491,0,0,10.1491,56.037501,29.552914)">
<stop offset="0" style="stop-color:rgb(98.431373%,100%,82.745098%);stop-opacity:1;"/>
<stop offset="0.532" style="stop-color:rgb(100%,90.196078%,49.019608%);stop-opacity:1;"/>
<stop offset="1" style="stop-color:rgb(98.823529%,100%,88.627451%);stop-opacity:1;"/>
</linearGradient>
<linearGradient id="linear5" gradientUnits="userSpaceOnUse" x1="0" y1="0" x2="1" y2="0" gradientTransform="matrix(10.149099,0,0,10.149099,29.779534,29.552883)">
<stop offset="0" style="stop-color:rgb(98.431373%,100%,82.745098%);stop-opacity:1;"/>
<stop offset="0.532" style="stop-color:rgb(100%,90.196078%,49.019608%);stop-opacity:1;"/>
<stop offset="1" style="stop-color:rgb(98.823529%,100%,88.627451%);stop-opacity:1;"/>
</linearGradient>
<linearGradient id="linear6" gradientUnits="userSpaceOnUse" x1="0" y1="0" x2="1" y2="0" gradientTransform="matrix(11.134818,0,0,11.134818,30.664092,27.963013)">
<stop offset="0" style="stop-color:rgb(100%,82.745098%,40%);stop-opacity:1;"/>
<stop offset="0.22" style="stop-color:rgb(100%,97.647059%,59.607843%);stop-opacity:1;"/>
<stop offset="0.425" style="stop-color:rgb(100%,81.568627%,36.078431%);stop-opacity:1;"/>
<stop offset="1" style="stop-color:rgb(100%,67.45098%,11.372549%);stop-opacity:1;"/>
</linearGradient>
<linearGradient id="linear7" gradientUnits="userSpaceOnUse" x1="0" y1="0" x2="1" y2="0" gradientTransform="matrix(11.1348,0,0,11.1348,54.167223,27.963013)">
<stop offset="0" style="stop-color:rgb(100%,82.745098%,40%);stop-opacity:1;"/>
<stop offset="0.22" style="stop-color:rgb(100%,97.647059%,59.607843%);stop-opacity:1;"/>
<stop offset="0.425" style="stop-color:rgb(100%,81.568627%,36.078431%);stop-opacity:1;"/>
<stop offset="1" style="stop-color:rgb(100%,67.45098%,11.372549%);stop-opacity:1;"/>
</linearGradient>
<linearGradient id="linear8" gradientUnits="userSpaceOnUse" x1="0" y1="0" x2="1" y2="0" gradientTransform="matrix(41.645153,0,0,41.645153,27.160478,64.362318)">
<stop offset="0" style="stop-color:rgb(98.431373%,100%,82.745098%);stop-opacity:1;"/>
<stop offset="0.532" style="stop-color:rgb(100%,90.196078%,49.019608%);stop-opacity:1;"/>
<stop offset="1" style="stop-color:rgb(98.823529%,100%,88.627451%);stop-opacity:1;"/>
</linearGradient>
<linearGradient id="linear9" gradientUnits="userSpaceOnUse" x1="0" y1="0" x2="1" y2="0" gradientTransform="matrix(24.554163,3.766833,-3.766833,24.554163,40.626112,58.823791)">
<stop offset="0" style="stop-color:rgb(100%,82.745098%,40%);stop-opacity:1;"/>
<stop offset="0.22" style="stop-color:rgb(100%,97.647059%,59.607843%);stop-opacity:1;"/>
<stop offset="0.425" style="stop-color:rgb(100%,81.568627%,36.078431%);stop-opacity:1;"/>
<stop offset="1" style="stop-color:rgb(100%,67.45098%,11.372549%);stop-opacity:1;"/>
</linearGradient>
<linearGradient id="linear10" gradientUnits="userSpaceOnUse" x1="0" y1="0" x2="1" y2="0" gradientTransform="matrix(24.554195,3.766838,-3.766838,24.554195,41.480375,53.255344)">
<stop offset="0" style="stop-color:rgb(100%,82.745098%,40%);stop-opacity:1;"/>
<stop offset="0.22" style="stop-color:rgb(100%,97.647059%,59.607843%);stop-opacity:1;"/>
<stop offset="0.425" style="stop-color:rgb(100%,81.568627%,36.078431%);stop-opacity:1;"/>
<stop offset="1" style="stop-color:rgb(100%,67.45098%,11.372549%);stop-opacity:1;"/>
</linearGradient>
<linearGradient id="linear11" gradientUnits="userSpaceOnUse" x1="0" y1="0" x2="1" y2="0" gradientTransform="matrix(41.644012,0,0,41.644012,27.161052,68.816466)">
<stop offset="0" style="stop-color:rgb(100%,82.745098%,40%);stop-opacity:1;"/>
<stop offset="0.22" style="stop-color:rgb(100%,97.647059%,59.607843%);stop-opacity:1;"/>
<stop offset="0.425" style="stop-color:rgb(100%,81.568627%,36.078431%);stop-opacity:1;"/>
<stop offset="1" style="stop-color:rgb(100%,67.45098%,11.372549%);stop-opacity:1;"/>
</linearGradient>
<linearGradient id="linear12" gradientUnits="userSpaceOnUse" x1="0" y1="0" x2="1" y2="0" gradientTransform="matrix(8.79668,0,0,8.79668,22.654984,38.65229)">
<stop offset="0" style="stop-color:rgb(98.431373%,100%,82.745098%);stop-opacity:1;"/>
<stop offset="0.532" style="stop-color:rgb(100%,90.196078%,49.019608%);stop-opacity:1;"/>
<stop offset="1" style="stop-color:rgb(98.823529%,100%,88.627451%);stop-opacity:1;"/>
</linearGradient>
<linearGradient id="linear13" gradientUnits="userSpaceOnUse" x1="0" y1="0" x2="1" y2="0" gradientTransform="matrix(36.249281,0,0,36.249281,29.858415,43.460032)">
<stop offset="0" style="stop-color:rgb(98.431373%,100%,82.745098%);stop-opacity:1;"/>
<stop offset="0.532" style="stop-color:rgb(100%,90.196078%,49.019608%);stop-opacity:1;"/>
<stop offset="1" style="stop-color:rgb(98.823529%,100%,88.627451%);stop-opacity:1;"/>
</linearGradient>
<linearGradient id="linear14" gradientUnits="userSpaceOnUse" x1="0" y1="0" x2="1" y2="0" gradientTransform="matrix(7.380144,0,0,7.380144,21.646513,44.027936)">
<stop offset="0" style="stop-color:rgb(100%,82.745098%,40%);stop-opacity:1;"/>
<stop offset="0.22" style="stop-color:rgb(100%,97.647059%,59.607843%);stop-opacity:1;"/>
<stop offset="0.425" style="stop-color:rgb(100%,81.568627%,36.078431%);stop-opacity:1;"/>
<stop offset="1" style="stop-color:rgb(100%,67.45098%,11.372549%);stop-opacity:1;"/>
</linearGradient>
<linearGradient id="linear15" gradientUnits="userSpaceOnUse" x1="0" y1="0" x2="1" y2="0" gradientTransform="matrix(7.380114,0,0,7.380114,66.939478,44.027905)">
<stop offset="0" style="stop-color:rgb(100%,82.745098%,40%);stop-opacity:1;"/>
<stop offset="0.22" style="stop-color:rgb(100%,97.647059%,59.607843%);stop-opacity:1;"/>
<stop offset="0.425" style="stop-color:rgb(100%,81.568627%,36.078431%);stop-opacity:1;"/>
<stop offset="1" style="stop-color:rgb(100%,67.45098%,11.372549%);stop-opacity:1;"/>
</linearGradient>
<linearGradient id="linear16" gradientUnits="userSpaceOnUse" x1="0" y1="0" x2="1" y2="0" gradientTransform="matrix(-0.0754117,9.653008,-9.653008,-0.0754117,48.09361,20.319676)">
<stop offset="0" style="stop-color:rgb(100%,82.745098%,40%);stop-opacity:1;"/>
<stop offset="0.22" style="stop-color:rgb(100%,97.647059%,59.607843%);stop-opacity:1;"/>
<stop offset="0.425" style="stop-color:rgb(100%,81.568627%,36.078431%);stop-opacity:1;"/>
<stop offset="1" style="stop-color:rgb(100%,67.45098%,11.372549%);stop-opacity:1;"/>
</linearGradient>
<clipPath id="clip7">
  <path d="M 41.246094 20 L 50.558594 20 L 50.558594 32 L 41.246094 32 Z M 41.246094 20 "/>
</clipPath>
<clipPath id="clip8">
  <path d="M 38.046875 21.625 C 38.046875 21.625 39.164062 24.097656 41.34375 30.90625 C 44.726562 29.917969 51.71875 29.917969 54.304688 31.183594 C 54.304688 31.183594 56.371094 25.582031 58.121094 21.636719 C 52.4375 28.152344 50.5625 24.367188 48.105469 20.039062 C 43.382812 28.328125 41.167969 24.898438 38.046875 21.625 "/>
</clipPath>
<filter id="alpha" filterUnits="objectBoundingBox" x="0%" y="0%" width="100%" height="100%">
  <feColorMatrix type="matrix" in="SourceGraphic" values="0 0 0 0 1 0 0 0 0 1 0 0 0 0 1 0 0 0 1 0"/>
</filter>
<mask id="mask0">
  <g filter="url(#alpha)">
<rect x="0" y="0" width="96" height="96" style="fill:rgb(0%,0%,0%);fill-opacity:0.4;stroke:none;"/>
  </g>
</mask>
<linearGradient id="linear17" gradientUnits="userSpaceOnUse" x1="0" y1="0" x2="1" y2="0" gradientTransform="matrix(9.313507,0,0,9.313507,41.246052,25.82693)">
<stop offset="0" style="stop-color:rgb(98.431373%,100%,82.745098%);stop-opacity:1;"/>
<stop offset="0.532" style="stop-color:rgb(100%,90.196078%,49.019608%);stop-opacity:1;"/>
<stop offset="1" style="stop-color:rgb(98.823529%,100%,88.627451%);stop-opacity:1;"/>
</linearGradient>
<clipPath id="clip9">
  <rect x="0" y="0" width="96" height="96"/>
</clipPath>
<g id="surface5" clip-path="url(#clip9)">
<path style=" stroke:none;fill-rule:nonzero;fill:url(#linear17);" d="M 44.847656 32.050781 L 41.246094 32.019531 L 46.957031 19.601562 L 50.558594 19.632812 Z M 44.847656 32.050781 "/>
</g>
<clipPath id="clip10">
  <path d="M 49.644531 23.050781 L 56.378906 23.050781 L 56.378906 32 L 49.644531 32 Z M 49.644531 23.050781 "/>
</clipPath>
<clipPath id="clip11">
  <path d="M 38.046875 21.625 C 38.046875 21.625 39.164062 24.097656 41.34375 30.90625 C 44.726562 29.917969 51.71875 29.917969 54.304688 31.183594 C 54.304688 31.183594 56.371094 25.582031 58.121094 21.636719 C 52.4375 28.152344 50.5625 24.367188 48.105469 20.039062 C 43.382812 28.328125 41.167969 24.898438 38.046875 21.625 "/>
</clipPath>
<mask id="mask1">
  <g filter="url(#alpha)">
<rect x="0" y="0" width="96" height="96" style="fill:rgb(0%,0%,0%);fill-opacity:0.4;stroke:none;"/>
  </g>
</mask>
<linearGradient id="linear18" gradientUnits="userSpaceOnUse" x1="0" y1="0" x2="1" y2="0" gradientTransform="matrix(6.733003,0,0,6.733003,49.64561,27.551292)">
<stop offset="0" style="stop-color:rgb(98.431373%,100%,82.745098%);stop-opacity:1;"/>
<stop offset="0.532" style="stop-color:rgb(100%,90.196078%,49.019608%);stop-opacity:1;"/>
<stop offset="1" style="stop-color:rgb(98.823529%,100%,88.627451%);stop-opacity:1;"/>
</linearGradient>
<clipPath id="clip12">
  <rect x="0" y="0" width="96" height="96"/>
</clipPath>
<g id="surface8" clip-path="url(#clip12)">
<path style=" stroke:none;fill-rule:nonzero;fill:url(#linear18);" d="M 52.25 32.050781 L 49.644531 32.027344 L 53.777344 23.050781 L 56.378906 23.074219 Z M 52.25 32.050781 "/>
</g>
</defs>
<g id="surface1">
<path style=" stroke:none;fill-rule:nonzero;fill:url(#linear0);" d="M 4.089844 47.992188 C 4.089844 72.242188 23.746094 91.898438 47.996094 91.898438 C 72.242188 91.898438 91.898438 72.242188 91.898438 47.992188 C 91.898438 23.746094 72.242188 4.089844 47.996094 4.089844 C 23.746094 4.089844 4.089844 23.746094 4.089844 47.992188 "/>
<path style=" stroke:none;fill-rule:nonzero;fill:url(#linear1);" d="M 5.03125 47.992188 C 5.03125 71.722656 24.265625 90.957031 47.996094 90.957031 C 71.722656 90.957031 90.957031 71.722656 90.957031 47.992188 C 90.957031 24.265625 71.722656 5.03125 47.996094 5.03125 C 24.265625 5.03125 5.03125 24.265625 5.03125 47.992188 "/>
<path style=" stroke:none;fill-rule:nonzero;fill:url(#linear2);" d="M 7.8125 47.992188 C 7.8125 70.1875 25.800781 88.175781 47.996094 88.175781 C 70.1875 88.175781 88.175781 70.1875 88.175781 47.992188 C 88.175781 25.800781 70.1875 7.808594 47.996094 7.808594 C 25.800781 7.808594 7.8125 25.800781 7.8125 47.992188 "/>
<path style=" stroke:none;fill-rule:nonzero;fill:url(#linear3);" d="M 8.804688 47.992188 C 8.804688 69.640625 26.347656 87.183594 47.996094 87.183594 C 69.640625 87.183594 87.183594 69.640625 87.183594 47.992188 C 87.183594 26.347656 69.640625 8.804688 47.996094 8.804688 C 26.347656 8.804688 8.804688 26.347656 8.804688 47.992188 "/>
<path style=" stroke:none;fill-rule:nonzero;fill:rgb(46.27451%,36.078431%,10.196078%);fill-opacity:1;" d="M 63.894531 36.769531 C 64.152344 36.441406 64.386719 36.109375 64.609375 35.773438 C 64.609375 35.769531 64.613281 35.761719 64.617188 35.757812 C 64.621094 35.746094 64.632812 35.734375 64.640625 35.722656 C 66.300781 33.152344 66.972656 30.324219 66.632812 27.285156 C 66.480469 25.933594 66.144531 24.777344 65.832031 23.929688 C 63.601562 27.546875 60.753906 29.851562 58.640625 31.195312 C 57.894531 31.667969 57.191406 32.054688 56.570312 32.367188 C 58.722656 33.003906 60.609375 33.953125 62.183594 35.1875 C 62.796875 35.671875 63.367188 36.199219 63.894531 36.769531 "/>
<path style=" stroke:none;fill-rule:nonzero;fill:rgb(46.27451%,36.078431%,10.196078%);fill-opacity:1;" d="M 32.414062 35.761719 C 32.414062 35.761719 32.417969 35.765625 32.417969 35.769531 C 32.640625 36.105469 32.878906 36.441406 33.132812 36.769531 C 33.660156 36.199219 34.230469 35.671875 34.847656 35.1875 C 36.417969 33.953125 38.308594 33.003906 40.460938 32.367188 C 39.835938 32.054688 39.132812 31.667969 38.386719 31.195312 C 36.273438 29.851562 33.425781 27.546875 31.195312 23.929688 C 30.882812 24.777344 30.550781 25.933594 30.398438 27.285156 C 30.054688 30.328125 30.726562 33.164062 32.398438 35.734375 C 32.402344 35.746094 32.410156 35.75 32.414062 35.761719 "/>
<path style=" stroke:none;fill-rule:nonzero;fill:rgb(46.27451%,36.078431%,10.196078%);fill-opacity:1;" d="M 31.195312 23.929688 C 31.195312 23.929688 33.898438 31.710938 38.160156 33.589844 C 42.46875 33.132812 42.328125 32.445312 42.328125 32.445312 C 42.328125 32.445312 32.0625 25.398438 31.195312 23.929688 "/>
<path style=" stroke:none;fill-rule:nonzero;fill:rgb(46.27451%,36.078431%,10.196078%);fill-opacity:1;" d="M 65.832031 23.929688 C 65.832031 23.929688 63.128906 31.710938 58.867188 33.589844 C 54.5625 33.132812 54.699219 32.445312 54.699219 32.445312 C 54.699219 32.445312 64.964844 25.398438 65.832031 23.929688 "/>
<g clip-path="url(#clip1)" clip-rule="nonzero">
<path style=" stroke:none;fill-rule:nonzero;fill:rgb(46.27451%,36.078431%,10.196078%);fill-opacity:1;" d="M 74 44.394531 C 72.019531 46.011719 70.125 47.03125 68.359375 47.4375 C 68.277344 46.445312 68.109375 45.402344 67.824219 44.328125 C 67.714844 43.917969 67.597656 43.519531 67.472656 43.132812 C 68.265625 43.242188 69.003906 43.289062 69.6875 43.289062 C 72.105469 43.289062 73.824219 42.695312 74.816406 42.214844 C 74.960938 43.046875 74.660156 43.859375 74 44.394531 M 68.917969 61.664062 C 69.765625 64.554688 69.328125 67.183594 67.609375 69.480469 C 66.074219 71.53125 63.535156 73.238281 60.269531 74.425781 C 56.917969 75.640625 52.855469 76.28125 48.515625 76.28125 C 44.175781 76.28125 40.109375 75.640625 36.757812 74.425781 C 33.492188 73.238281 30.953125 71.53125 29.421875 69.480469 C 27.703125 67.183594 27.261719 64.554688 28.113281 61.664062 C 28.636719 59.882812 29.980469 58.371094 32.101562 57.175781 C 33.882812 56.167969 36.207031 55.386719 39 54.847656 C 43.832031 53.914062 48.429688 54.042969 48.488281 54.042969 C 48.496094 54.042969 48.503906 54.042969 48.515625 54.042969 C 48.523438 54.042969 48.535156 54.042969 48.542969 54.042969 C 48.589844 54.042969 53.164062 53.910156 58 54.839844 C 60.800781 55.378906 63.128906 56.164062 64.917969 57.167969 C 67.046875 58.367188 68.390625 59.878906 68.917969 61.664062 M 24.421875 41.136719 C 23.921875 41.003906 23.511719 40.847656 23.1875 40.699219 C 23.375 40.574219 23.585938 40.472656 23.816406 40.40625 C 27.554688 39.292969 30.175781 38.03125 31.375 37.394531 C 31.570312 37.660156 31.769531 37.925781 31.984375 38.1875 C 31.332031 39.09375 30.769531 40.097656 30.285156 41.199219 C 27.628906 41.734375 25.640625 41.46875 24.421875 41.136719 M 29.207031 44.328125 C 28.921875 45.402344 28.753906 46.445312 28.671875 47.4375 C 26.902344 47.03125 25.011719 46.011719 23.027344 44.394531 C 22.371094 43.859375 22.070312 43.046875 22.214844 42.214844 C 23.203125 42.695312 24.921875 43.289062 27.339844 43.289062 C 28.023438 43.289062 28.761719 43.242188 29.558594 43.132812 C 29.433594 43.519531 29.316406 43.917969 29.207031 44.328125 M 30.398438 27.285156 C 30.441406 26.890625 30.5 26.511719 30.570312 26.15625 C 30.746094 25.273438 31.878906 25 32.421875 25.714844 C 34.402344 28.328125 36.644531 30.085938 38.386719 31.195312 C 39.132812 31.667969 39.835938 32.054688 40.460938 32.367188 C 38.308594 33.003906 36.417969 33.953125 34.847656 35.1875 C 34.230469 35.671875 33.660156 36.199219 33.132812 36.769531 C 32.878906 36.441406 32.640625 36.105469 32.417969 35.769531 C 32.417969 35.765625 32.414062 35.761719 32.414062 35.761719 C 32.410156 35.75 32.402344 35.746094 32.398438 35.734375 C 30.726562 33.164062 30.054688 30.328125 30.398438 27.285156 M 43.636719 33.464844 C 45.128906 33.226562 46.753906 33.105469 48.515625 33.105469 C 49.210938 33.105469 49.886719 33.125 50.542969 33.164062 C 50.0625 33.835938 49.667969 34.886719 50.300781 36.222656 C 51.445312 38.628906 55.339844 36.03125 57.035156 38.15625 C 58.605469 40.125 62.023438 40.238281 63.101562 38.582031 C 64.453125 40.25 65.441406 42.3125 66.101562 44.785156 C 66.960938 48.023438 66.632812 50.953125 66.203125 52.84375 C 65.953125 53.9375 65.644531 54.816406 65.40625 55.40625 C 63.511719 54.410156 61.136719 53.628906 58.335938 53.089844 C 53.449219 52.152344 48.945312 52.25 48.515625 52.261719 C 48.082031 52.25 43.578125 52.152344 38.691406 53.089844 C 35.894531 53.628906 33.519531 54.410156 31.621094 55.40625 C 31.382812 54.816406 31.074219 53.9375 30.828125 52.84375 C 30.398438 50.953125 30.066406 48.023438 30.929688 44.785156 C 32.652344 38.304688 36.671875 34.640625 43.425781 33.5 C 43.5 33.496094 43.570312 33.484375 43.636719 33.464844 M 58.640625 31.195312 C 60.382812 30.085938 62.625 28.328125 64.609375 25.714844 C 65.152344 25 66.285156 25.273438 66.457031 26.15625 C 66.527344 26.511719 66.585938 26.890625 66.632812 27.285156 C 66.972656 30.324219 66.300781 33.152344 64.640625 35.722656 C 64.632812 35.734375 64.621094 35.746094 64.617188 35.757812 C 64.613281 35.761719 64.609375 35.769531 64.609375 35.773438 C 64.386719 36.109375 64.152344 36.441406 63.894531 36.769531 C 63.367188 36.199219 62.796875 35.671875 62.183594 35.1875 C 60.609375 33.953125 58.722656 33.003906 56.570312 32.367188 C 57.191406 32.054688 57.894531 31.667969 58.640625 31.195312 M 73.71875 38.699219 C 70.28125 37.675781 67.800781 36.5 66.617188 35.886719 C 67.222656 34.8125 67.683594 33.699219 68 32.546875 C 68.484375 30.765625 68.617188 28.902344 68.394531 27.007812 C 68.324219 26.410156 68.195312 25.832031 68.027344 25.285156 C 67.429688 23.289062 64.828125 22.765625 63.515625 24.382812 C 62.058594 26.183594 60.03125 28.3125 57.742188 29.65625 C 55.703125 30.851562 54.085938 31.527344 53.566406 31.695312 C 52 31.449219 50.3125 31.324219 48.515625 31.324219 C 46.714844 31.324219 45.027344 31.449219 43.464844 31.695312 C 42.941406 31.527344 41.328125 30.851562 39.289062 29.65625 C 36.972656 28.296875 35.003906 26.136719 33.582031 24.324219 C 32.277344 22.660156 29.648438 23.144531 29.027344 25.164062 C 28.824219 25.824219 28.679688 26.464844 28.636719 27.007812 C 28.414062 28.902344 28.546875 30.765625 29.03125 32.546875 C 29.34375 33.699219 29.804688 34.8125 30.410156 35.886719 C 29.175781 36.527344 26.53125 37.777344 22.859375 38.828125 C 22.5 38.929688 22.164062 39.105469 21.890625 39.359375 C 19.757812 41.339844 20.042969 44.257812 21.902344 45.777344 C 24.21875 47.664062 26.46875 48.828125 28.609375 49.242188 C 28.636719 50.832031 28.855469 52.222656 29.105469 53.300781 C 29.414062 54.644531 29.804688 55.695312 30.078125 56.339844 C 28.191406 57.660156 26.957031 59.277344 26.402344 61.164062 C 25.402344 64.574219 25.949219 67.816406 27.992188 70.546875 L 29.46875 72.1875 C 31.851562 74.429688 35.316406 76.105469 39.488281 77.082031 L 41.28125 77.453125 C 43.535156 77.855469 45.960938 78.0625 48.515625 78.0625 C 51.066406 78.0625 53.492188 77.855469 55.746094 77.453125 L 57.542969 77.082031 C 61.714844 76.105469 65.175781 74.429688 67.5625 72.1875 L 69.035156 70.546875 C 71.078125 67.816406 71.628906 64.574219 70.625 61.164062 C 70.070312 59.277344 68.835938 57.660156 66.949219 56.339844 C 67.222656 55.695312 67.613281 54.644531 67.925781 53.300781 C 68.175781 52.222656 68.394531 50.832031 68.417969 49.242188 C 70.738281 48.792969 73.195312 47.460938 75.71875 45.28125 C 76.042969 45 76.289062 44.632812 76.410156 44.21875 C 77.1875 41.605469 75.910156 39.347656 73.71875 38.699219 "/>
</g>
<path style=" stroke:none;fill-rule:nonzero;fill:rgb(46.27451%,36.078431%,10.196078%);fill-opacity:1;" d="M 36.757812 74.425781 C 40.109375 75.640625 44.175781 76.28125 48.515625 76.28125 C 52.855469 76.28125 56.917969 75.640625 60.269531 74.425781 C 63.535156 73.238281 66.074219 71.53125 67.609375 69.480469 C 69.328125 67.183594 69.765625 64.554688 68.917969 61.664062 C 68.390625 59.878906 67.046875 58.367188 64.917969 57.167969 C 63.128906 56.164062 60.800781 55.378906 58 54.839844 C 53.164062 53.910156 48.589844 54.042969 48.542969 54.042969 C 48.535156 54.042969 48.523438 54.042969 48.515625 54.042969 C 48.503906 54.042969 48.496094 54.042969 48.488281 54.042969 C 48.429688 54.042969 43.832031 53.914062 39 54.847656 C 36.207031 55.386719 33.882812 56.167969 32.101562 57.175781 C 29.980469 58.371094 28.636719 59.882812 28.113281 61.664062 C 27.261719 64.554688 27.703125 67.183594 29.421875 69.480469 C 30.953125 71.53125 33.492188 73.238281 36.757812 74.425781 "/>
<path style=" stroke:none;fill-rule:nonzero;fill:rgb(46.27451%,36.078431%,10.196078%);fill-opacity:1;" d="M 28.113281 62.691406 C 28.636719 60.910156 29.980469 59.398438 32.101562 58.203125 C 33.882812 57.199219 36.207031 56.414062 39 55.875 C 43.832031 54.941406 48.429688 55.070312 48.488281 55.070312 C 48.496094 55.070312 48.503906 55.070312 48.515625 55.070312 C 48.523438 55.070312 48.535156 55.070312 48.542969 55.070312 C 48.589844 55.070312 53.164062 54.9375 58 55.867188 C 60.800781 56.40625 63.128906 57.191406 64.917969 58.195312 C 67.046875 59.394531 68.390625 60.90625 68.917969 62.691406 C 69.144531 63.464844 69.277344 64.214844 69.320312 64.949219 C 69.382812 63.898438 69.25 62.800781 68.917969 61.664062 C 68.390625 59.878906 67.046875 58.367188 64.917969 57.167969 C 63.128906 56.164062 60.800781 55.378906 58 54.839844 C 53.164062 53.910156 48.589844 54.042969 48.542969 54.042969 C 48.535156 54.042969 48.523438 54.042969 48.515625 54.042969 C 48.503906 54.042969 48.496094 54.042969 48.488281 54.042969 C 48.429688 54.042969 43.832031 53.914062 39 54.847656 C 36.207031 55.386719 33.882812 56.167969 32.101562 57.175781 C 29.980469 58.371094 28.636719 59.882812 28.113281 61.664062 C 27.777344 62.800781 27.644531 63.898438 27.707031 64.949219 C 27.75 64.214844 27.886719 63.464844 28.113281 62.691406 "/>
<path style=" stroke:none;fill-rule:nonzero;fill:rgb(46.27451%,36.078431%,10.196078%);fill-opacity:1;" d="M 65.464844 57.316406 C 65.464844 58.519531 64.488281 59.492188 63.289062 59.492188 C 62.085938 59.492188 61.109375 58.519531 61.109375 57.316406 C 61.109375 56.113281 62.085938 55.140625 63.289062 55.140625 C 64.488281 55.140625 65.464844 56.113281 65.464844 57.316406 "/>
<path style=" stroke:none;fill-rule:nonzero;fill:rgb(46.27451%,36.078431%,10.196078%);fill-opacity:1;" d="M 67.609375 66.546875 C 66.074219 68.597656 63.535156 70.308594 60.269531 71.492188 C 56.917969 72.707031 52.855469 73.351562 48.515625 73.351562 C 44.175781 73.351562 40.109375 72.707031 36.757812 71.492188 C 33.492188 70.308594 30.953125 68.597656 29.421875 66.546875 C 28.578125 65.425781 28.046875 64.21875 27.816406 62.945312 C 27.421875 65.335938 27.960938 67.527344 29.421875 69.480469 C 30.953125 71.53125 33.492188 73.238281 36.757812 74.425781 C 40.109375 75.640625 44.175781 76.28125 48.515625 76.28125 C 52.855469 76.28125 56.917969 75.640625 60.269531 74.425781 C 63.535156 73.238281 66.074219 71.53125 67.609375 69.480469 C 69.070312 67.527344 69.605469 65.335938 69.210938 62.945312 C 68.984375 64.21875 68.449219 65.425781 67.609375 66.546875 "/>
<path style=" stroke:none;fill-rule:nonzero;fill:rgb(46.27451%,36.078431%,10.196078%);fill-opacity:1;" d="M 31.984375 38.1875 C 31.769531 37.925781 31.570312 37.660156 31.375 37.394531 C 30.175781 38.03125 27.554688 39.292969 23.816406 40.40625 C 23.585938 40.472656 23.375 40.574219 23.1875 40.699219 C 23.511719 40.847656 23.921875 41.003906 24.421875 41.136719 C 25.640625 41.46875 27.628906 41.734375 30.285156 41.199219 C 30.769531 40.097656 31.332031 39.09375 31.984375 38.1875 "/>
<path style=" stroke:none;fill-rule:nonzero;fill:rgb(46.27451%,36.078431%,10.196078%);fill-opacity:1;" d="M 66.101562 44.785156 C 65.441406 42.3125 64.453125 40.25 63.101562 38.582031 C 62.023438 40.238281 58.605469 40.125 57.035156 38.15625 C 55.339844 36.03125 51.445312 38.628906 50.300781 36.222656 C 49.667969 34.886719 50.0625 33.835938 50.542969 33.164062 C 49.886719 33.125 49.210938 33.105469 48.515625 33.105469 C 46.753906 33.105469 45.128906 33.226562 43.636719 33.464844 C 43.570312 33.484375 43.5 33.496094 43.425781 33.5 C 36.671875 34.640625 32.652344 38.304688 30.929688 44.785156 C 30.066406 48.023438 30.398438 50.953125 30.828125 52.84375 C 31.074219 53.933594 31.382812 54.816406 31.621094 55.40625 C 33.515625 54.410156 35.894531 53.628906 38.691406 53.089844 C 43.578125 52.152344 48.082031 52.25 48.515625 52.261719 C 48.945312 52.25 53.449219 52.152344 58.335938 53.089844 C 61.136719 53.628906 63.511719 54.410156 65.40625 55.40625 C 65.644531 54.816406 65.953125 53.933594 66.203125 52.84375 C 66.632812 50.953125 66.960938 48.023438 66.101562 44.785156 "/>
<path style=" stroke:none;fill-rule:nonzero;fill:rgb(46.27451%,36.078431%,10.196078%);fill-opacity:1;" d="M 22.214844 42.214844 C 22.070312 43.046875 22.367188 43.859375 23.027344 44.394531 C 25.011719 46.011719 26.902344 47.03125 28.671875 47.4375 C 28.753906 46.445312 28.921875 45.402344 29.207031 44.328125 C 29.316406 43.917969 29.433594 43.519531 29.558594 43.128906 C 28.761719 43.242188 28.023438 43.289062 27.339844 43.289062 C 24.921875 43.289062 23.203125 42.691406 22.214844 42.214844 "/>
<path style=" stroke:none;fill-rule:nonzero;fill:rgb(46.27451%,36.078431%,10.196078%);fill-opacity:1;" d="M 68.359375 47.4375 C 70.125 47.03125 72.019531 46.011719 74 44.394531 C 74.660156 43.859375 74.960938 43.046875 74.816406 42.214844 C 73.824219 42.695312 72.105469 43.289062 69.6875 43.289062 C 69.003906 43.289062 68.265625 43.242188 67.472656 43.132812 C 67.597656 43.519531 67.714844 43.917969 67.824219 44.328125 C 68.109375 45.402344 68.277344 46.445312 68.359375 47.4375 "/>
<path style=" stroke:none;fill-rule:nonzero;fill:rgb(46.27451%,36.078431%,10.196078%);fill-opacity:1;" d="M 34.785156 42.84375 C 34.550781 43.277344 34.710938 43.816406 35.140625 44.050781 C 35.277344 44.125 35.421875 44.160156 35.566406 44.160156 C 35.882812 44.160156 36.1875 43.992188 36.351562 43.695312 C 36.355469 43.6875 36.816406 42.894531 37.917969 42.800781 C 38.542969 42.746094 39.078125 42.863281 39.457031 42.996094 C 39.832031 43.128906 40.246094 42.996094 40.472656 42.671875 L 40.488281 42.644531 C 40.816406 42.171875 40.605469 41.515625 40.0625 41.324219 C 39.488281 41.117188 38.695312 40.945312 37.769531 41.023438 C 35.699219 41.199219 34.820312 42.777344 34.785156 42.84375 "/>
<path style=" stroke:none;fill-rule:nonzero;fill:rgb(46.27451%,36.078431%,10.196078%);fill-opacity:1;" d="M 42.660156 62.621094 C 43.363281 62.355469 43.632812 61.332031 43.253906 60.339844 C 42.878906 59.34375 42.003906 58.753906 41.300781 59.019531 C 40.59375 59.289062 40.328125 60.308594 40.703125 61.304688 C 41.078125 62.296875 41.953125 62.886719 42.660156 62.621094 "/>
<path style=" stroke:none;fill-rule:nonzero;fill:rgb(46.27451%,36.078431%,10.196078%);fill-opacity:1;" d="M 54.371094 62.621094 C 55.074219 62.886719 55.953125 62.296875 56.328125 61.304688 C 56.703125 60.308594 56.433594 59.289062 55.730469 59.019531 C 55.023438 58.753906 54.148438 59.34375 53.773438 60.339844 C 53.398438 61.332031 53.664062 62.355469 54.371094 62.621094 "/>
<path style=" stroke:none;fill-rule:nonzero;fill:rgb(46.27451%,36.078431%,10.196078%);fill-opacity:1;" d="M 62.246094 42.84375 C 62.480469 43.277344 62.320312 43.816406 61.886719 44.050781 C 61.75 44.125 61.605469 44.160156 61.460938 44.160156 C 61.148438 44.160156 60.839844 43.992188 60.679688 43.695312 C 60.675781 43.6875 60.214844 42.894531 59.109375 42.800781 C 58.484375 42.746094 57.949219 42.863281 57.574219 42.996094 C 57.199219 43.128906 56.78125 42.996094 56.554688 42.671875 L 56.539062 42.644531 C 56.210938 42.171875 56.421875 41.515625 56.964844 41.324219 C 57.542969 41.117188 58.332031 40.945312 59.261719 41.023438 C 61.328125 41.199219 62.207031 42.777344 62.246094 42.84375 "/>
<path style=" stroke:none;fill-rule:nonzero;fill:rgb(46.27451%,36.078431%,10.196078%);fill-opacity:1;" d="M 40.367188 48.964844 C 40.140625 49.09375 39.863281 49.148438 39.574219 49.089844 C 39.128906 49 38.773438 48.632812 38.6875 48.1875 C 38.640625 47.925781 38.683594 47.675781 38.789062 47.464844 C 38.410156 47.398438 37.992188 47.441406 37.558594 47.667969 C 37.054688 47.929688 36.679688 48.40625 36.5625 48.960938 C 36.449219 49.5 36.558594 50.007812 36.8125 50.414062 C 36.933594 50.308594 37.089844 50.242188 37.261719 50.242188 C 37.628906 50.242188 37.929688 50.542969 37.929688 50.914062 C 37.929688 51.027344 37.898438 51.136719 37.847656 51.230469 C 38.203125 51.347656 38.601562 51.371094 39.015625 51.253906 C 39.601562 51.089844 40.085938 50.636719 40.292969 50.058594 C 40.429688 49.675781 40.441406 49.304688 40.367188 48.964844 "/>
<path style=" stroke:none;fill-rule:nonzero;fill:rgb(46.27451%,36.078431%,10.196078%);fill-opacity:1;" d="M 60.464844 48.964844 C 60.238281 49.09375 59.964844 49.148438 59.675781 49.089844 C 59.230469 49 58.871094 48.636719 58.789062 48.191406 C 58.738281 47.925781 58.785156 47.675781 58.890625 47.464844 C 58.511719 47.398438 58.097656 47.441406 57.664062 47.664062 C 57.160156 47.921875 56.78125 48.402344 56.664062 48.957031 C 56.546875 49.496094 56.65625 50.007812 56.914062 50.414062 C 57.03125 50.308594 57.1875 50.242188 57.359375 50.242188 C 57.730469 50.242188 58.027344 50.542969 58.027344 50.914062 C 58.027344 51.027344 58 51.136719 57.949219 51.230469 C 58.296875 51.347656 58.691406 51.367188 59.097656 51.257812 C 59.691406 51.097656 60.179688 50.644531 60.386719 50.070312 C 60.527344 49.683594 60.539062 49.308594 60.464844 48.964844 "/>
<path style=" stroke:none;fill-rule:nonzero;fill:rgb(46.27451%,36.078431%,10.196078%);fill-opacity:1;" d="M 53.222656 66.332031 C 52.75 66.195312 52.253906 66.464844 52.117188 66.9375 C 52.117188 66.941406 51.976562 67.339844 51.542969 67.742188 C 50.867188 68.375 49.820312 68.707031 48.515625 68.707031 C 47.207031 68.707031 46.160156 68.375 45.484375 67.742188 C 45.050781 67.339844 44.910156 66.941406 44.910156 66.9375 C 44.773438 66.464844 44.277344 66.195312 43.804688 66.332031 C 43.335938 66.46875 43.0625 66.964844 43.199219 67.433594 C 43.238281 67.558594 44.140625 70.488281 48.515625 70.488281 C 52.890625 70.488281 53.792969 67.558594 53.828125 67.433594 C 53.964844 66.964844 53.695312 66.46875 53.222656 66.332031 "/>
<path style=" stroke:none;fill-rule:nonzero;fill:rgb(46.27451%,36.078431%,10.196078%);fill-opacity:1;" d="M 54.835938 32.667969 C 54.734375 32.667969 54.628906 32.644531 54.535156 32.597656 C 53.359375 32.019531 50.988281 31.675781 48.191406 31.675781 C 45.820312 31.675781 43.527344 31.933594 42.066406 32.363281 C 42 32.378906 41.9375 32.390625 41.875 32.390625 C 41.582031 32.390625 41.3125 32.203125 41.222656 31.914062 C 39.089844 25.238281 37.964844 22.726562 37.953125 22.703125 C 37.816406 22.398438 37.917969 22.039062 38.195312 21.855469 C 38.3125 21.777344 38.445312 21.738281 38.578125 21.738281 C 38.761719 21.738281 38.941406 21.808594 39.074219 21.949219 C 39.300781 22.1875 39.523438 22.429688 39.746094 22.664062 C 41.0625 24.082031 42.199219 25.304688 43.363281 25.304688 C 44.667969 25.304688 46.199219 23.734375 48.042969 20.496094 C 48.164062 20.28125 48.390625 20.148438 48.636719 20.148438 C 48.882812 20.148438 49.109375 20.28125 49.230469 20.496094 L 49.4375 20.855469 C 50.769531 23.214844 51.921875 25.25 53.507812 25.25 C 54.6875 25.25 56.246094 24.152344 58.136719 21.984375 C 58.269531 21.832031 58.460938 21.75 58.652344 21.75 C 58.777344 21.75 58.90625 21.785156 59.019531 21.855469 C 59.304688 22.039062 59.414062 22.402344 59.277344 22.710938 C 57.558594 26.589844 55.5 32.164062 55.476562 32.21875 C 55.410156 32.402344 55.269531 32.546875 55.089844 32.617188 C 55.007812 32.648438 54.921875 32.667969 54.835938 32.667969 "/>
<g clip-path="url(#clip2)" clip-rule="nonzero">
<g clip-path="url(#clip3)" clip-rule="nonzero">
<path style=" stroke:none;fill-rule:nonzero;fill:rgb(46.27451%,36.078431%,10.196078%);fill-opacity:1;" d="M 45.378906 32.847656 L 41.777344 32.816406 L 47.492188 20.402344 L 51.089844 20.429688 Z M 45.378906 32.847656 "/>
</g>
</g>
<g clip-path="url(#clip4)" clip-rule="nonzero">
<g clip-path="url(#clip5)" clip-rule="nonzero">
<path style=" stroke:none;fill-rule:nonzero;fill:rgb(46.27451%,36.078431%,10.196078%);fill-opacity:1;" d="M 52.78125 32.847656 L 50.175781 32.824219 L 54.308594 23.847656 L 56.910156 23.871094 Z M 52.78125 32.847656 "/>
</g>
</g>
<g clip-path="url(#clip6)" clip-rule="nonzero">
<path style=" stroke:none;fill-rule:nonzero;fill:rgb(46.27451%,36.078431%,10.196078%);fill-opacity:1;" d="M 55.890625 29.199219 C 51.058594 27.246094 44.953125 27.746094 40.933594 28.828125 C 39.375 24.183594 38.578125 22.421875 38.578125 22.421875 C 40.257812 24.183594 41.675781 25.992188 43.363281 25.992188 C 44.8125 25.992188 46.457031 24.660156 48.636719 20.835938 C 50.140625 23.488281 51.429688 25.9375 53.507812 25.9375 C 54.820312 25.9375 56.449219 24.957031 58.652344 22.433594 C 57.695312 24.589844 56.648438 27.238281 55.890625 29.199219 M 54.835938 31.980469 C 53.460938 31.308594 50.847656 30.992188 48.191406 30.992188 C 45.84375 30.992188 43.460938 31.238281 41.875 31.703125 C 41.664062 31.054688 41.46875 30.445312 41.277344 29.871094 C 45.136719 28.84375 50.933594 28.371094 55.496094 30.222656 C 55.089844 31.289062 54.835938 31.980469 54.835938 31.980469 M 59.386719 21.28125 C 59.160156 21.136719 58.90625 21.066406 58.652344 21.066406 C 58.269531 21.066406 57.886719 21.226562 57.621094 21.535156 C 55.433594 24.042969 54.175781 24.566406 53.507812 24.566406 C 52.320312 24.566406 51.210938 22.601562 50.03125 20.519531 L 49.828125 20.160156 C 49.585938 19.730469 49.128906 19.464844 48.636719 19.464844 C 48.144531 19.464844 47.691406 19.730469 47.449219 20.15625 C 45.234375 24.042969 43.9375 24.621094 43.363281 24.621094 C 42.5 24.621094 41.40625 23.445312 40.246094 22.199219 C 40.023438 21.960938 39.800781 21.71875 39.570312 21.476562 C 39.300781 21.199219 38.941406 21.054688 38.578125 21.054688 C 38.3125 21.054688 38.046875 21.128906 37.8125 21.285156 C 37.257812 21.660156 37.054688 22.378906 37.332031 22.984375 C 37.339844 23.007812 38.453125 25.503906 40.570312 32.121094 C 40.753906 32.703125 41.292969 33.074219 41.871094 33.074219 C 42 33.074219 42.128906 33.054688 42.257812 33.019531 C 43.664062 32.605469 45.878906 32.363281 48.191406 32.363281 C 50.851562 32.363281 53.164062 32.6875 54.234375 33.210938 C 54.421875 33.304688 54.628906 33.351562 54.835938 33.351562 C 55.007812 33.351562 55.179688 33.316406 55.34375 33.253906 C 55.703125 33.109375 55.984375 32.820312 56.121094 32.457031 C 56.140625 32.398438 58.191406 26.847656 59.902344 22.988281 C 60.175781 22.371094 59.957031 21.644531 59.386719 21.28125 "/>
</g>
<path style=" stroke:none;fill-rule:nonzero;fill:url(#linear4);" d="M 58.109375 30.398438 C 57.363281 30.871094 56.660156 31.257812 56.039062 31.570312 C 58.1875 32.207031 60.078125 33.15625 61.652344 34.390625 C 62.265625 34.875 62.835938 35.402344 63.363281 35.972656 C 63.621094 35.644531 63.855469 35.3125 64.078125 34.976562 C 64.078125 34.972656 64.082031 34.964844 64.082031 34.960938 C 64.089844 34.949219 64.101562 34.9375 64.109375 34.925781 C 65.769531 32.355469 66.441406 29.527344 66.101562 26.488281 C 65.949219 25.136719 65.613281 23.980469 65.300781 23.132812 C 63.070312 26.75 60.222656 29.054688 58.109375 30.398438 "/>
<path style=" stroke:none;fill-rule:nonzero;fill:url(#linear5);" d="M 29.867188 26.488281 C 29.523438 29.53125 30.195312 32.367188 31.867188 34.9375 C 31.871094 34.945312 31.878906 34.953125 31.882812 34.964844 C 31.882812 34.964844 31.886719 34.96875 31.886719 34.972656 C 32.109375 35.308594 32.347656 35.644531 32.601562 35.972656 C 33.128906 35.402344 33.699219 34.875 34.316406 34.390625 C 35.886719 33.15625 37.777344 32.207031 39.929688 31.570312 C 39.304688 31.257812 38.601562 30.871094 37.855469 30.398438 C 35.742188 29.054688 32.894531 26.75 30.664062 23.132812 C 30.351562 23.980469 30.015625 25.136719 29.867188 26.488281 "/>
<path style=" stroke:none;fill-rule:nonzero;fill:url(#linear6);" d="M 37.628906 32.792969 C 41.9375 32.335938 41.796875 31.648438 41.796875 31.648438 C 41.796875 31.648438 31.53125 24.601562 30.664062 23.132812 C 30.664062 23.132812 33.367188 30.914062 37.628906 32.792969 "/>
<path style=" stroke:none;fill-rule:nonzero;fill:url(#linear7);" d="M 54.167969 31.648438 C 54.167969 31.648438 54.03125 32.335938 58.335938 32.792969 C 62.597656 30.914062 65.300781 23.132812 65.300781 23.132812 C 64.433594 24.601562 54.167969 31.648438 54.167969 31.648438 "/>
<path style=" stroke:none;fill-rule:nonzero;fill:rgb(67.843137%,54.901961%,23.529412%);fill-opacity:1;" d="M 73.46875 43.597656 C 71.488281 45.214844 69.59375 46.234375 67.824219 46.640625 C 67.746094 45.648438 67.578125 44.605469 67.292969 43.527344 C 67.183594 43.121094 67.066406 42.722656 66.941406 42.332031 C 67.734375 42.445312 68.472656 42.492188 69.15625 42.492188 C 71.574219 42.492188 73.292969 41.894531 74.285156 41.417969 C 74.429688 42.25 74.128906 43.0625 73.46875 43.597656 M 68.386719 60.867188 C 69.234375 63.757812 68.796875 66.386719 67.078125 68.683594 C 65.542969 70.734375 63.003906 72.441406 59.738281 73.628906 C 56.386719 74.84375 52.324219 75.484375 47.984375 75.484375 C 43.644531 75.484375 39.578125 74.84375 36.226562 73.628906 C 32.960938 72.441406 30.421875 70.734375 28.890625 68.683594 C 27.171875 66.386719 26.730469 63.757812 27.582031 60.867188 C 28.105469 59.085938 29.445312 57.574219 31.570312 56.378906 C 33.351562 55.371094 35.675781 54.589844 38.46875 54.050781 C 43.300781 53.117188 47.898438 53.242188 47.957031 53.246094 C 47.964844 53.246094 47.972656 53.246094 47.984375 53.246094 C 47.992188 53.246094 48 53.246094 48.011719 53.246094 C 48.054688 53.246094 52.632812 53.113281 57.46875 54.042969 C 60.269531 54.582031 62.597656 55.367188 64.386719 56.371094 C 66.515625 57.566406 67.859375 59.082031 68.386719 60.867188 M 23.890625 40.339844 C 23.390625 40.207031 22.980469 40.050781 22.65625 39.902344 C 22.84375 39.777344 23.054688 39.675781 23.285156 39.609375 C 27.023438 38.496094 29.644531 37.234375 30.84375 36.597656 C 31.039062 36.863281 31.238281 37.128906 31.453125 37.386719 C 30.800781 38.296875 30.238281 39.300781 29.753906 40.402344 C 27.097656 40.9375 25.109375 40.671875 23.890625 40.339844 M 28.675781 43.527344 C 28.390625 44.605469 28.222656 45.648438 28.140625 46.640625 C 26.371094 46.234375 24.480469 45.214844 22.496094 43.597656 C 21.835938 43.0625 21.535156 42.25 21.683594 41.417969 C 22.671875 41.894531 24.390625 42.492188 26.808594 42.492188 C 27.492188 42.492188 28.230469 42.445312 29.027344 42.332031 C 28.902344 42.722656 28.785156 43.121094 28.675781 43.527344 M 29.867188 26.488281 C 29.910156 26.09375 29.96875 25.714844 30.039062 25.359375 C 30.214844 24.476562 31.347656 24.203125 31.890625 24.917969 C 33.871094 27.53125 36.113281 29.289062 37.855469 30.398438 C 38.601562 30.871094 39.304688 31.257812 39.929688 31.570312 C 37.777344 32.207031 35.886719 33.15625 34.316406 34.390625 C 33.699219 34.875 33.128906 35.402344 32.601562 35.972656 C 32.347656 35.644531 32.109375 35.308594 31.886719 34.972656 C 31.886719 34.96875 31.882812 34.964844 31.882812 34.964844 C 31.878906 34.953125 31.871094 34.945312 31.867188 34.9375 C 30.195312 32.367188 29.523438 29.53125 29.867188 26.488281 M 43.105469 32.667969 C 44.597656 32.429688 46.222656 32.308594 47.984375 32.308594 C 48.679688 32.308594 49.355469 32.328125 50.011719 32.367188 C 49.53125 33.039062 49.132812 34.089844 49.769531 35.421875 C 50.914062 37.832031 54.808594 35.234375 56.503906 37.359375 C 58.074219 39.328125 61.492188 39.441406 62.570312 37.785156 C 63.921875 39.453125 64.910156 41.515625 65.570312 43.988281 C 66.429688 47.226562 66.101562 50.15625 65.671875 52.046875 C 65.421875 53.136719 65.113281 54.019531 64.875 54.609375 C 62.980469 53.609375 60.605469 52.832031 57.804688 52.292969 C 52.917969 51.355469 48.414062 51.453125 47.984375 51.464844 C 47.550781 51.453125 43.046875 51.355469 38.160156 52.292969 C 35.363281 52.832031 32.984375 53.609375 31.089844 54.609375 C 30.851562 54.019531 30.542969 53.136719 30.296875 52.046875 C 29.867188 50.15625 29.535156 47.226562 30.398438 43.988281 C 32.121094 37.507812 36.140625 33.84375 42.894531 32.703125 C 42.96875 32.699219 43.039062 32.6875 43.105469 32.667969 M 58.109375 30.398438 C 59.851562 29.289062 62.09375 27.53125 64.078125 24.917969 C 64.621094 24.203125 65.753906 24.476562 65.925781 25.359375 C 65.996094 25.714844 66.054688 26.09375 66.101562 26.488281 C 66.441406 29.527344 65.769531 32.355469 64.109375 34.925781 C 64.101562 34.9375 64.089844 34.949219 64.082031 34.960938 C 64.082031 34.964844 64.078125 34.972656 64.078125 34.976562 C 63.855469 35.3125 63.621094 35.644531 63.363281 35.972656 C 62.835938 35.402344 62.265625 34.875 61.652344 34.390625 C 60.078125 33.15625 58.1875 32.207031 56.039062 31.570312 C 56.660156 31.257812 57.363281 30.871094 58.109375 30.398438 M 73.1875 37.898438 C 69.75 36.878906 67.269531 35.703125 66.085938 35.089844 C 66.691406 34.015625 67.152344 32.902344 67.46875 31.75 C 67.953125 29.96875 68.085938 28.105469 67.863281 26.210938 C 67.792969 25.613281 67.660156 25.035156 67.496094 24.488281 C 66.898438 22.492188 64.296875 21.96875 62.984375 23.585938 C 61.527344 25.386719 59.5 27.515625 57.210938 28.859375 C 55.171875 30.054688 53.554688 30.730469 53.035156 30.898438 C 51.46875 30.652344 49.78125 30.527344 47.984375 30.527344 C 46.183594 30.527344 44.496094 30.652344 42.933594 30.898438 C 42.410156 30.730469 40.796875 30.054688 38.753906 28.859375 C 36.4375 27.5 34.472656 25.339844 33.050781 23.523438 C 31.746094 21.863281 29.117188 22.347656 28.496094 24.367188 C 28.292969 25.027344 28.148438 25.667969 28.105469 26.210938 C 27.882812 28.105469 28.015625 29.96875 28.5 31.75 C 28.8125 32.902344 29.273438 34.015625 29.878906 35.089844 C 28.644531 35.730469 26 36.980469 22.324219 38.03125 C 21.96875 38.132812 21.632812 38.308594 21.359375 38.5625 C 19.226562 40.542969 19.511719 43.460938 21.371094 44.980469 C 23.6875 46.867188 25.9375 48.03125 28.078125 48.445312 C 28.105469 50.035156 28.324219 51.425781 28.574219 52.503906 C 28.882812 53.847656 29.273438 54.898438 29.546875 55.542969 C 27.660156 56.863281 26.425781 58.480469 25.871094 60.367188 C 24.871094 63.777344 25.417969 67.019531 27.460938 69.75 L 28.9375 71.390625 C 31.320312 73.632812 34.785156 75.308594 38.957031 76.285156 L 40.75 76.65625 C 43.003906 77.054688 45.429688 77.265625 47.984375 77.265625 C 50.535156 77.265625 52.960938 77.054688 55.214844 76.65625 L 57.007812 76.285156 C 61.183594 75.308594 64.644531 73.632812 67.03125 71.390625 L 68.503906 69.75 C 70.546875 67.019531 71.097656 63.777344 70.09375 60.367188 C 69.539062 58.480469 68.304688 56.863281 66.417969 55.542969 C 66.691406 54.898438 67.082031 53.847656 67.394531 52.503906 C 67.640625 51.425781 67.863281 50.035156 67.886719 48.445312 C 70.207031 47.996094 72.664062 46.664062 75.1875 44.484375 C 75.511719 44.203125 75.757812 43.835938 75.878906 43.421875 C 76.65625 40.808594 75.378906 38.550781 73.1875 37.898438 "/>
<path style=" stroke:none;fill-rule:nonzero;fill:url(#linear8);" d="M 48.011719 53.246094 C 48 53.246094 47.992188 53.246094 47.984375 53.246094 C 47.972656 53.246094 47.964844 53.246094 47.957031 53.246094 C 47.898438 53.242188 43.300781 53.117188 38.46875 54.050781 C 35.675781 54.589844 33.351562 55.371094 31.570312 56.378906 C 29.449219 57.574219 28.105469 59.085938 27.582031 60.867188 C 26.730469 63.757812 27.171875 66.386719 28.890625 68.683594 C 30.421875 70.734375 32.960938 72.441406 36.226562 73.628906 C 39.578125 74.84375 43.644531 75.484375 47.984375 75.484375 C 52.324219 75.484375 56.386719 74.84375 59.738281 73.628906 C 63.003906 72.441406 65.542969 70.734375 67.078125 68.683594 C 68.792969 66.386719 69.234375 63.757812 68.386719 60.867188 C 67.859375 59.082031 66.515625 57.566406 64.386719 56.371094 C 62.597656 55.367188 60.269531 54.582031 57.46875 54.042969 C 53.707031 53.320312 50.105469 53.238281 48.667969 53.238281 C 48.253906 53.238281 48.019531 53.246094 48.011719 53.246094 "/>
<path style=" stroke:none;fill-rule:nonzero;fill:url(#linear9);" d="M 48.011719 53.246094 C 48 53.246094 47.992188 53.246094 47.984375 53.246094 C 47.972656 53.246094 47.964844 53.246094 47.957031 53.246094 C 47.898438 53.242188 43.300781 53.117188 38.46875 54.050781 C 35.675781 54.589844 33.351562 55.371094 31.570312 56.378906 C 29.449219 57.574219 28.105469 59.085938 27.582031 60.867188 C 27.246094 62.003906 27.113281 63.101562 27.175781 64.152344 C 27.21875 63.417969 27.355469 62.667969 27.582031 61.894531 C 28.105469 60.113281 29.449219 58.601562 31.570312 57.40625 C 33.351562 56.402344 35.675781 55.617188 38.46875 55.078125 C 43.300781 54.144531 47.898438 54.273438 47.957031 54.273438 C 47.964844 54.273438 47.972656 54.273438 47.984375 54.273438 C 47.992188 54.273438 48 54.273438 48.011719 54.273438 C 48.054688 54.273438 52.632812 54.140625 57.46875 55.070312 C 60.269531 55.609375 62.597656 56.394531 64.386719 57.398438 C 66.515625 58.597656 67.859375 60.109375 68.386719 61.894531 C 68.613281 62.667969 68.746094 63.417969 68.789062 64.152344 C 68.851562 63.101562 68.71875 62.003906 68.386719 60.867188 C 67.859375 59.082031 66.515625 57.566406 64.386719 56.371094 C 62.597656 55.367188 60.269531 54.582031 57.46875 54.042969 C 53.707031 53.320312 50.105469 53.238281 48.667969 53.238281 C 48.253906 53.238281 48.019531 53.246094 48.011719 53.246094 "/>
<path style=" stroke:none;fill-rule:nonzero;fill:url(#linear10);" d="M 60.578125 56.519531 C 60.578125 57.722656 61.554688 58.695312 62.753906 58.695312 C 63.957031 58.695312 64.933594 57.722656 64.933594 56.519531 C 64.933594 55.316406 63.957031 54.34375 62.753906 54.34375 C 61.554688 54.34375 60.578125 55.316406 60.578125 56.519531 "/>
<path style=" stroke:none;fill-rule:nonzero;fill:url(#linear11);" d="M 67.078125 65.75 C 65.542969 67.800781 63.003906 69.511719 59.738281 70.695312 C 56.386719 71.910156 52.324219 72.554688 47.984375 72.554688 C 43.644531 72.554688 39.578125 71.910156 36.226562 70.695312 C 32.960938 69.511719 30.421875 67.800781 28.890625 65.75 C 28.046875 64.628906 27.511719 63.421875 27.285156 62.148438 C 26.890625 64.539062 27.429688 66.730469 28.890625 68.683594 C 30.421875 70.734375 32.960938 72.441406 36.226562 73.628906 C 39.578125 74.84375 43.644531 75.484375 47.984375 75.484375 C 52.324219 75.484375 56.386719 74.84375 59.738281 73.628906 C 63.003906 72.441406 65.542969 70.734375 67.078125 68.683594 C 68.539062 66.730469 69.074219 64.539062 68.679688 62.148438 C 68.453125 63.421875 67.917969 64.628906 67.078125 65.75 "/>
<path style=" stroke:none;fill-rule:nonzero;fill:url(#linear12);" d="M 23.285156 39.609375 C 23.054688 39.675781 22.84375 39.777344 22.65625 39.902344 C 22.980469 40.050781 23.390625 40.207031 23.890625 40.339844 C 25.109375 40.671875 27.09375 40.9375 29.753906 40.402344 C 30.238281 39.300781 30.800781 38.296875 31.453125 37.386719 C 31.238281 37.128906 31.039062 36.863281 30.84375 36.597656 C 29.644531 37.234375 27.023438 38.496094 23.285156 39.609375 "/>
<path style=" stroke:none;fill-rule:nonzero;fill:url(#linear13);" d="M 43.105469 32.667969 C 43.039062 32.6875 42.96875 32.699219 42.894531 32.703125 C 36.140625 33.84375 32.121094 37.507812 30.398438 43.988281 C 29.535156 47.226562 29.867188 50.15625 30.296875 52.046875 C 30.542969 53.136719 30.851562 54.019531 31.089844 54.609375 C 32.984375 53.613281 35.363281 52.832031 38.160156 52.292969 C 43.046875 51.355469 47.550781 51.453125 47.984375 51.464844 C 48.414062 51.453125 52.917969 51.355469 57.804688 52.292969 C 60.605469 52.832031 62.980469 53.613281 64.875 54.609375 C 65.113281 54.019531 65.421875 53.136719 65.671875 52.046875 C 66.101562 50.15625 66.429688 47.226562 65.570312 43.988281 C 64.910156 41.515625 63.917969 39.453125 62.570312 37.785156 C 61.492188 39.441406 58.074219 39.328125 56.503906 37.359375 C 55.679688 36.328125 54.339844 36.410156 53.046875 36.492188 C 51.675781 36.578125 50.359375 36.664062 49.769531 35.421875 C 49.132812 34.089844 49.53125 33.039062 50.011719 32.367188 C 49.355469 32.328125 48.679688 32.308594 47.984375 32.308594 C 46.222656 32.308594 44.597656 32.429688 43.105469 32.667969 "/>
<path style=" stroke:none;fill-rule:nonzero;fill:url(#linear14);" d="M 22.496094 43.597656 C 24.480469 45.214844 26.371094 46.234375 28.140625 46.640625 C 28.222656 45.648438 28.390625 44.605469 28.675781 43.527344 C 28.785156 43.121094 28.902344 42.722656 29.027344 42.332031 C 28.230469 42.445312 27.492188 42.492188 26.808594 42.492188 C 24.390625 42.492188 22.671875 41.894531 21.683594 41.417969 C 21.535156 42.25 21.835938 43.0625 22.496094 43.597656 "/>
<path style=" stroke:none;fill-rule:nonzero;fill:url(#linear15);" d="M 69.15625 42.492188 C 68.472656 42.492188 67.734375 42.445312 66.9375 42.332031 C 67.066406 42.722656 67.183594 43.121094 67.289062 43.527344 C 67.578125 44.605469 67.746094 45.648438 67.824219 46.640625 C 69.59375 46.234375 71.488281 45.214844 73.46875 43.597656 C 74.128906 43.0625 74.429688 42.25 74.285156 41.417969 C 73.292969 41.894531 71.574219 42.492188 69.15625 42.492188 "/>
<path style=" stroke:none;fill-rule:nonzero;fill:rgb(67.843137%,54.901961%,23.529412%);fill-opacity:1;" d="M 34.253906 42.046875 C 34.019531 42.480469 34.179688 43.019531 34.609375 43.253906 C 34.746094 43.328125 34.890625 43.363281 35.035156 43.363281 C 35.351562 43.363281 35.65625 43.195312 35.820312 42.898438 C 35.824219 42.890625 36.285156 42.09375 37.386719 42.003906 C 38.011719 41.949219 38.546875 42.066406 38.925781 42.199219 C 39.300781 42.332031 39.714844 42.199219 39.941406 41.875 L 39.957031 41.847656 C 40.285156 41.375 40.074219 40.71875 39.53125 40.523438 C 38.957031 40.320312 38.164062 40.148438 37.238281 40.226562 C 35.167969 40.402344 34.289062 41.980469 34.253906 42.046875 "/>
<path style=" stroke:none;fill-rule:nonzero;fill:rgb(67.843137%,54.901961%,23.529412%);fill-opacity:1;" d="M 42.128906 61.824219 C 42.832031 61.558594 43.097656 60.535156 42.722656 59.542969 C 42.347656 58.546875 41.472656 57.957031 40.765625 58.222656 C 40.0625 58.488281 39.796875 59.511719 40.171875 60.507812 C 40.546875 61.5 41.421875 62.089844 42.128906 61.824219 "/>
<path style=" stroke:none;fill-rule:nonzero;fill:rgb(67.843137%,54.901961%,23.529412%);fill-opacity:1;" d="M 53.839844 61.824219 C 54.542969 62.089844 55.421875 61.5 55.796875 60.507812 C 56.171875 59.511719 55.902344 58.488281 55.199219 58.222656 C 54.492188 57.957031 53.617188 58.546875 53.242188 59.542969 C 52.867188 60.535156 53.132812 61.558594 53.839844 61.824219 "/>
<path style=" stroke:none;fill-rule:nonzero;fill:rgb(67.843137%,54.901961%,23.529412%);fill-opacity:1;" d="M 61.714844 42.046875 C 61.949219 42.480469 61.789062 43.019531 61.355469 43.253906 C 61.21875 43.328125 61.074219 43.363281 60.929688 43.363281 C 60.613281 43.363281 60.308594 43.195312 60.148438 42.898438 C 60.144531 42.890625 59.683594 42.09375 58.578125 42.003906 C 57.953125 41.949219 57.417969 42.066406 57.039062 42.199219 C 56.664062 42.332031 56.25 42.199219 56.023438 41.875 L 56.007812 41.847656 C 55.679688 41.375 55.890625 40.71875 56.433594 40.523438 C 57.011719 40.320312 57.800781 40.148438 58.730469 40.226562 C 60.796875 40.402344 61.675781 41.980469 61.714844 42.046875 "/>
<path style=" stroke:none;fill-rule:nonzero;fill:rgb(67.843137%,54.901961%,23.529412%);fill-opacity:1;" d="M 39.835938 48.167969 C 39.609375 48.296875 39.332031 48.351562 39.042969 48.292969 C 38.597656 48.203125 38.242188 47.835938 38.15625 47.390625 C 38.109375 47.128906 38.152344 46.878906 38.257812 46.667969 C 37.878906 46.601562 37.460938 46.644531 37.027344 46.867188 C 36.523438 47.128906 36.148438 47.609375 36.03125 48.164062 C 35.917969 48.703125 36.027344 49.210938 36.28125 49.617188 C 36.402344 49.511719 36.558594 49.445312 36.730469 49.445312 C 37.097656 49.445312 37.398438 49.746094 37.398438 50.117188 C 37.398438 50.230469 37.367188 50.339844 37.316406 50.433594 C 37.671875 50.550781 38.070312 50.574219 38.484375 50.457031 C 39.070312 50.292969 39.554688 49.839844 39.761719 49.261719 C 39.898438 48.878906 39.910156 48.507812 39.835938 48.167969 "/>
<path style=" stroke:none;fill-rule:nonzero;fill:rgb(67.843137%,54.901961%,23.529412%);fill-opacity:1;" d="M 59.933594 48.167969 C 59.707031 48.296875 59.433594 48.351562 59.144531 48.292969 C 58.699219 48.203125 58.339844 47.839844 58.257812 47.394531 C 58.207031 47.128906 58.253906 46.878906 58.359375 46.667969 C 57.980469 46.601562 57.566406 46.640625 57.132812 46.867188 C 56.628906 47.125 56.25 47.605469 56.132812 48.160156 C 56.015625 48.699219 56.125 49.210938 56.382812 49.617188 C 56.5 49.511719 56.65625 49.445312 56.828125 49.445312 C 57.199219 49.445312 57.496094 49.746094 57.496094 50.117188 C 57.496094 50.230469 57.46875 50.339844 57.417969 50.433594 C 57.765625 50.550781 58.160156 50.570312 58.566406 50.460938 C 59.160156 50.300781 59.648438 49.847656 59.855469 49.273438 C 59.996094 48.886719 60.007812 48.511719 59.933594 48.167969 "/>
<path style=" stroke:none;fill-rule:nonzero;fill:rgb(67.843137%,54.901961%,23.529412%);fill-opacity:1;" d="M 52.691406 65.535156 C 52.21875 65.398438 51.722656 65.667969 51.585938 66.140625 C 51.585938 66.144531 51.445312 66.542969 51.011719 66.945312 C 50.335938 67.578125 49.289062 67.910156 47.984375 67.910156 C 46.675781 67.910156 45.628906 67.578125 44.953125 66.945312 C 44.519531 66.542969 44.378906 66.144531 44.378906 66.140625 C 44.242188 65.667969 43.746094 65.398438 43.273438 65.535156 C 42.800781 65.671875 42.53125 66.167969 42.667969 66.636719 C 42.707031 66.761719 43.609375 69.691406 47.984375 69.691406 C 52.359375 69.691406 53.261719 66.761719 53.296875 66.636719 C 53.433594 66.167969 53.164062 65.671875 52.691406 65.535156 "/>
<path style=" stroke:none;fill-rule:nonzero;fill:url(#linear16);" d="M 48.105469 19.351562 C 47.859375 19.351562 47.632812 19.484375 47.511719 19.699219 C 45.667969 22.933594 44.136719 24.507812 42.832031 24.507812 C 41.667969 24.507812 40.53125 23.285156 39.214844 21.867188 C 38.992188 21.632812 38.769531 21.390625 38.542969 21.152344 C 38.410156 21.011719 38.226562 20.941406 38.046875 20.941406 C 37.914062 20.941406 37.78125 20.976562 37.664062 21.058594 C 37.386719 21.242188 37.285156 21.601562 37.421875 21.90625 C 37.433594 21.929688 38.558594 24.441406 40.691406 31.117188 C 40.78125 31.40625 41.050781 31.59375 41.339844 31.59375 C 41.40625 31.59375 41.46875 31.582031 41.535156 31.5625 C 42.996094 31.136719 45.289062 30.878906 47.660156 30.878906 C 50.457031 30.878906 52.828125 31.222656 54.003906 31.800781 C 54.097656 31.84375 54.203125 31.867188 54.304688 31.867188 C 54.390625 31.867188 54.476562 31.851562 54.558594 31.820312 C 54.738281 31.75 54.878906 31.601562 54.945312 31.421875 C 54.96875 31.367188 57.027344 25.792969 58.746094 21.914062 C 58.882812 21.605469 58.773438 21.242188 58.488281 21.058594 C 58.375 20.988281 58.246094 20.953125 58.121094 20.953125 C 57.929688 20.953125 57.738281 21.035156 57.605469 21.1875 C 55.714844 23.355469 54.15625 24.453125 52.976562 24.453125 C 51.390625 24.453125 50.238281 22.417969 48.90625 20.058594 L 48.699219 19.699219 C 48.578125 19.484375 48.351562 19.351562 48.105469 19.351562 Z M 48.105469 19.351562 "/>
<g clip-path="url(#clip7)" clip-rule="nonzero">
<g clip-path="url(#clip8)" clip-rule="nonzero">
<use xlink:href="#surface5" mask="url(#mask0)"/>
</g>
</g>
<g clip-path="url(#clip10)" clip-rule="nonzero">
<g clip-path="url(#clip11)" clip-rule="nonzero">
<use xlink:href="#surface8" mask="url(#mask1)"/>
</g>
</g>
<path style=" stroke:none;fill-rule:nonzero;fill:rgb(67.843137%,54.901961%,23.529412%);fill-opacity:1;" d="M 55.359375 28.402344 C 50.527344 26.449219 44.421875 26.949219 40.402344 28.03125 C 38.84375 23.386719 38.046875 21.625 38.046875 21.625 C 39.726562 23.386719 41.144531 25.191406 42.832031 25.191406 C 44.277344 25.191406 45.925781 23.863281 48.105469 20.039062 C 49.609375 22.691406 50.898438 25.140625 52.976562 25.140625 C 54.289062 25.140625 55.917969 24.160156 58.121094 21.636719 C 57.164062 23.792969 56.117188 26.441406 55.359375 28.402344 M 54.304688 31.183594 C 52.929688 30.511719 50.316406 30.195312 47.660156 30.195312 C 45.3125 30.195312 42.929688 30.441406 41.34375 30.90625 C 41.132812 30.257812 40.9375 29.644531 40.746094 29.074219 C 44.605469 28.046875 50.402344 27.574219 54.964844 29.425781 C 54.558594 30.492188 54.304688 31.183594 54.304688 31.183594 M 58.855469 20.484375 C 58.628906 20.339844 58.375 20.269531 58.121094 20.269531 C 57.734375 20.269531 57.355469 20.429688 57.089844 20.738281 C 54.902344 23.242188 53.644531 23.769531 52.976562 23.769531 C 51.789062 23.769531 50.679688 21.804688 49.5 19.722656 L 49.296875 19.363281 C 49.054688 18.933594 48.597656 18.667969 48.105469 18.667969 C 47.613281 18.667969 47.160156 18.933594 46.917969 19.359375 C 44.703125 23.246094 43.40625 23.824219 42.832031 23.824219 C 41.96875 23.824219 40.875 22.648438 39.714844 21.402344 C 39.492188 21.164062 39.269531 20.921875 39.039062 20.679688 C 38.769531 20.402344 38.410156 20.253906 38.046875 20.253906 C 37.78125 20.253906 37.515625 20.332031 37.28125 20.488281 C 36.726562 20.863281 36.523438 21.582031 36.800781 22.1875 C 36.808594 22.210938 37.921875 24.707031 40.039062 31.324219 C 40.222656 31.90625 40.761719 32.277344 41.339844 32.277344 C 41.46875 32.277344 41.597656 32.257812 41.726562 32.222656 C 43.132812 31.808594 45.347656 31.566406 47.660156 31.566406 C 50.316406 31.566406 52.632812 31.890625 53.703125 32.414062 C 53.890625 32.507812 54.097656 32.554688 54.304688 32.554688 C 54.476562 32.554688 54.648438 32.519531 54.8125 32.457031 C 55.171875 32.3125 55.453125 32.023438 55.589844 31.660156 C 55.609375 31.601562 57.660156 26.050781 59.371094 22.191406 C 59.644531 21.574219 59.425781 20.847656 58.855469 20.484375 "/>
</g>
</svg>
